<svg xmlns="http://www.w3.org/2000/svg" viewBox="0 0 937.26 389.11">
  <style>
    .key-bg { fill: #f5f5f5; stroke: #d4d4d4; stroke-width: 1; }
    .key-index { fill: #171717; font-family: ui-monospace, SFMono-Regular, "SF Mono", Menlo, Consolas, "Liberation Mono", monospace; font-weight: 700; text-anchor: middle; dominant-baseline: central; }
    .key-part { font-family: system-ui, -apple-system, BlinkMacSystemFont, "Segoe UI", Roboto, sans-serif; text-anchor: middle; dominant-baseline: central; }
    @media (prefers-color-scheme: dark) {
      .key-bg { fill: #2a2a2a; stroke: #404040; }
      .key-index { fill: #e5e5e5; }
    }
    .key-bg.part-0 { stroke: #f59e0b; }
    .key-part.part-0 { fill: #f59e0b; }
    .key-bg.part-1 { stroke: #14b8a6; }
    .key-part.part-1 { fill: #14b8a6; }
  </style>
  <g>
    <path class="key-bg part-0" d="M 97.61,54.23 L 155.29,48.16 Q 159.27,47.75 159.69,51.72 L 165.75,109.41 Q 166.17,113.38 162.19,113.80 L 104.51,119.86 Q 100.53,120.28 100.11,116.30 L 94.05,58.62 Q 93.63,54.64 97.61,54.23 Z" />
    <path class="key-bg part-0" d="M 176.14,25.35 L 234.07,22.31 Q 238.06,22.10 238.27,26.10 L 241.30,84.02 Q 241.51,88.01 237.52,88.22 L 179.60,91.26 Q 175.60,91.47 175.40,87.47 L 172.36,29.55 Q 172.15,25.56 176.14,25.35 Z" />
    <path class="key-bg part-0" d="M 257.14,42.82 L 315.14,42.82 Q 319.14,42.82 319.14,46.82 L 319.14,104.82 Q 319.14,108.82 315.14,108.82 L 257.14,108.82 Q 253.14,108.82 253.14,104.82 L 253.14,46.82 Q 253.14,42.82 257.14,42.82 Z" />
    <path class="key-bg part-0" d="M 327.28,77.89 L 385.28,77.89 Q 389.28,77.89 389.28,81.89 L 389.28,139.89 Q 389.28,143.89 385.28,143.89 L 327.28,143.89 Q 323.28,143.89 323.28,139.89 L 323.28,81.89 Q 323.28,77.89 327.28,77.89 Z" />
    <path class="key-bg part-1" d="M 551.98,77.89 L 609.98,77.89 Q 613.98,77.89 613.98,81.89 L 613.98,139.89 Q 613.98,143.89 609.98,143.89 L 551.98,143.89 Q 547.98,143.89 547.98,139.89 L 547.98,81.89 Q 547.98,77.89 551.98,77.89 Z" />
    <path class="key-bg part-1" d="M 622.19,42.82 L 680.19,42.82 Q 684.19,42.82 684.19,46.82 L 684.19,104.82 Q 684.19,108.82 680.19,108.82 L 622.19,108.82 Q 618.19,108.82 618.19,104.82 L 618.19,46.82 Q 618.19,42.82 622.19,42.82 Z" />
    <path class="key-bg part-1" d="M 703.27,22.31 L 761.19,25.35 Q 765.18,25.56 764.97,29.55 L 761.94,87.47 Q 761.73,91.47 757.74,91.26 L 699.81,88.22 Q 695.82,88.01 696.03,84.02 L 699.07,26.10 Q 699.27,22.10 703.27,22.31 Z" />
    <path class="key-bg part-1" d="M 781.97,48.16 L 839.65,54.23 Q 843.63,54.64 843.21,58.62 L 837.15,116.30 Q 836.73,120.28 832.75,119.86 L 775.07,113.80 Q 771.09,113.38 771.51,109.41 L 777.57,51.72 Q 777.99,47.75 781.97,48.16 Z" />
    <path class="key-bg part-0" d="M 26.28,160.80 L 83.02,148.75 Q 86.93,147.91 87.76,151.83 L 99.82,208.56 Q 100.65,212.47 96.74,213.30 L 40.01,225.36 Q 36.09,226.19 35.26,222.28 L 23.20,165.55 Q 22.37,161.64 26.28,160.80 Z" />
    <path class="key-bg part-0" d="M 104.96,124.02 L 162.64,117.95 Q 166.62,117.54 167.04,121.51 L 173.10,179.20 Q 173.52,183.17 169.54,183.59 L 111.86,189.65 Q 107.88,190.07 107.46,186.09 L 101.40,128.41 Q 100.98,124.43 104.96,124.02 Z" />
    <path class="key-bg part-0" d="M 179.78,95.49 L 237.71,92.45 Q 241.70,92.24 241.91,96.24 L 244.94,154.16 Q 245.15,158.15 241.16,158.36 L 183.24,161.40 Q 179.24,161.61 179.04,157.61 L 176.00,99.69 Q 175.79,95.70 179.78,95.49 Z" />
    <path class="key-bg part-0" d="M 257.14,112.96 L 315.14,112.96 Q 319.14,112.96 319.14,116.96 L 319.14,174.96 Q 319.14,178.96 315.14,178.96 L 257.14,178.96 Q 253.14,178.96 253.14,174.96 L 253.14,116.96 Q 253.14,112.96 257.14,112.96 Z" />
    <path class="key-bg part-0" d="M 327.28,148.10 L 385.28,148.10 Q 389.28,148.10 389.28,152.10 L 389.28,210.10 Q 389.28,214.10 385.28,214.10 L 327.28,214.10 Q 323.28,214.10 323.28,210.10 L 323.28,152.10 Q 323.28,148.10 327.28,148.10 Z" />
    <path class="key-bg part-1" d="M 551.98,148.10 L 609.98,148.10 Q 613.98,148.10 613.98,152.10 L 613.98,210.10 Q 613.98,214.10 609.98,214.10 L 551.98,214.10 Q 547.98,214.10 547.98,210.10 L 547.98,152.10 Q 547.98,148.10 551.98,148.10 Z" />
    <path class="key-bg part-1" d="M 622.19,112.96 L 680.19,112.96 Q 684.19,112.96 684.19,116.96 L 684.19,174.96 Q 684.19,178.96 680.19,178.96 L 622.19,178.96 Q 618.19,178.96 618.19,174.96 L 618.19,116.96 Q 618.19,112.96 622.19,112.96 Z" />
    <path class="key-bg part-1" d="M 699.56,92.45 L 757.48,95.49 Q 761.47,95.70 761.26,99.69 L 758.23,157.61 Q 758.02,161.61 754.03,161.40 L 696.10,158.36 Q 692.11,158.15 692.32,154.16 L 695.36,96.24 Q 695.56,92.24 699.56,92.45 Z" />
    <path class="key-bg part-1" d="M 774.62,117.95 L 832.30,124.02 Q 836.28,124.43 835.86,128.41 L 829.80,186.09 Q 829.38,190.07 825.40,189.65 L 767.72,183.59 Q 763.74,183.17 764.16,179.20 L 770.22,121.51 Q 770.64,117.54 774.62,117.95 Z" />
    <path class="key-bg part-1" d="M 854.25,148.75 L 910.98,160.80 Q 914.89,161.64 914.06,165.55 L 902.00,222.28 Q 901.17,226.19 897.26,225.36 L 840.52,213.30 Q 836.61,212.47 837.44,208.56 L 849.50,151.83 Q 850.33,147.91 854.25,148.75 Z" />
    <path class="key-bg part-0" d="M 40.84,229.47 L 97.58,217.42 Q 101.49,216.58 102.32,220.50 L 114.38,277.23 Q 115.21,281.14 111.30,281.97 L 54.57,294.03 Q 50.65,294.86 49.82,290.95 L 37.76,234.22 Q 36.93,230.31 40.84,229.47 Z" />
    <path class="key-bg part-0" d="M 112.31,193.81 L 169.99,187.74 Q 173.97,187.33 174.39,191.30 L 180.45,248.99 Q 180.87,252.96 176.89,253.38 L 119.21,259.44 Q 115.23,259.86 114.81,255.88 L 108.75,198.20 Q 108.33,194.22 112.31,193.81 Z" />
    <path class="key-bg part-0" d="M 183.49,165.56 L 241.42,162.52 Q 245.41,162.31 245.62,166.31 L 248.65,224.23 Q 248.86,228.22 244.87,228.43 L 186.95,231.47 Q 182.95,231.68 182.75,227.68 L 179.71,169.76 Q 179.50,165.77 183.49,165.56 Z" />
    <path class="key-bg part-0" d="M 257.14,183.17 L 315.14,183.17 Q 319.14,183.17 319.14,187.17 L 319.14,245.17 Q 319.14,249.17 315.14,249.17 L 257.14,249.17 Q 253.14,249.17 253.14,245.17 L 253.14,187.17 Q 253.14,183.17 257.14,183.17 Z" />
    <path class="key-bg part-1" d="M 622.19,183.17 L 680.19,183.17 Q 684.19,183.17 684.19,187.17 L 684.19,245.17 Q 684.19,249.17 680.19,249.17 L 622.19,249.17 Q 618.19,249.17 618.19,245.17 L 618.19,187.17 Q 618.19,183.17 622.19,183.17 Z" />
    <path class="key-bg part-1" d="M 695.92,162.52 L 753.84,165.56 Q 757.83,165.77 757.62,169.76 L 754.59,227.68 Q 754.38,231.68 750.39,231.47 L 692.46,228.43 Q 688.47,228.22 688.68,224.23 L 691.72,166.31 Q 691.92,162.31 695.92,162.52 Z" />
    <path class="key-bg part-1" d="M 767.34,187.74 L 825.02,193.81 Q 829.00,194.22 828.58,198.20 L 822.52,255.88 Q 822.10,259.86 818.12,259.44 L 760.44,253.38 Q 756.46,252.96 756.88,248.99 L 762.94,191.30 Q 763.36,187.33 767.34,187.74 Z" />
    <path class="key-bg part-1" d="M 839.69,217.42 L 896.42,229.47 Q 900.33,230.31 899.50,234.22 L 887.44,290.95 Q 886.61,294.86 882.70,294.03 L 825.96,281.97 Q 822.05,281.14 822.88,277.23 L 834.94,220.50 Q 835.77,216.58 839.69,217.42 Z" />
    <path class="key-bg part-0" d="M 303.85,259.32 L 358.35,279.15 Q 362.11,280.52 360.74,284.28 L 340.90,338.78 Q 339.54,342.54 335.78,341.17 L 281.27,321.34 Q 277.52,319.97 278.88,316.21 L 298.72,261.71 Q 300.09,257.95 303.85,259.32 Z" />
    <path class="key-bg part-0" d="M 369.79,283.33 L 424.29,303.16 Q 428.05,304.53 426.68,308.29 L 406.84,362.79 Q 405.48,366.55 401.72,365.18 L 347.21,345.35 Q 343.46,343.98 344.82,340.22 L 364.66,285.72 Q 366.03,281.96 369.79,283.33 Z" />
    <path class="key-bg part-1" d="M 512.97,303.16 L 567.48,283.33 Q 571.24,281.96 572.60,285.72 L 592.44,340.22 Q 593.81,343.98 590.05,345.35 L 535.55,365.18 Q 531.79,366.55 530.42,362.79 L 510.58,308.29 Q 509.22,304.53 512.97,303.16 Z" />
    <path class="key-bg part-1" d="M 578.91,279.15 L 633.42,259.32 Q 637.18,257.95 638.54,261.71 L 658.38,316.21 Q 659.75,319.97 655.99,321.34 L 601.49,341.17 Q 597.73,342.54 596.36,338.78 L 576.52,284.28 Q 575.16,280.52 578.91,279.15 Z" />
  </g>
  <g>
    <text class="key-index" x="129.90" y="72.37" font-size="26" transform="rotate(-6 129.90 84.01)">0</text>
    <text class="key-part part-0" x="129.90" y="99.65" font-size="18" transform="rotate(-6 129.90 84.01)">left</text>
    <text class="key-index" x="206.83" y="45.14" font-size="26" transform="rotate(-3 206.83 56.78)">1</text>
    <text class="key-part part-0" x="206.83" y="72.42" font-size="18" transform="rotate(-3 206.83 56.78)">left</text>
    <text class="key-index" x="286.14" y="64.18" font-size="26">2</text>
    <text class="key-part part-0" x="286.14" y="91.46" font-size="18">left</text>
    <text class="key-index" x="356.28" y="99.25" font-size="26">3</text>
    <text class="key-part part-0" x="356.28" y="126.53" font-size="18">left</text>
    <text class="key-index" x="580.98" y="99.25" font-size="26">4</text>
    <text class="key-part part-1" x="580.98" y="126.53" font-size="18">right</text>
    <text class="key-index" x="651.19" y="64.18" font-size="26">5</text>
    <text class="key-part part-1" x="651.19" y="91.46" font-size="18">right</text>
    <text class="key-index" x="730.50" y="45.14" font-size="26" transform="rotate(3 730.50 56.78)">6</text>
    <text class="key-part part-1" x="730.50" y="72.42" font-size="18" transform="rotate(3 730.50 56.78)">right</text>
    <text class="key-index" x="807.36" y="72.37" font-size="26" transform="rotate(6 807.36 84.01)">7</text>
    <text class="key-part part-1" x="807.36" y="99.65" font-size="18" transform="rotate(6 807.36 84.01)">right</text>
    <text class="key-index" x="61.51" y="175.41" font-size="26" transform="rotate(-12 61.51 187.05)">8</text>
    <text class="key-part part-0" x="61.51" y="202.69" font-size="18" transform="rotate(-12 61.51 187.05)">left</text>
    <text class="key-index" x="137.25" y="142.16" font-size="26" transform="rotate(-6 137.25 153.80)">9</text>
    <text class="key-part part-0" x="137.25" y="169.44" font-size="18" transform="rotate(-6 137.25 153.80)">left</text>
    <text class="key-index" x="210.47" y="115.28" font-size="26" transform="rotate(-3 210.47 126.92)">10</text>
    <text class="key-part part-0" x="210.47" y="142.56" font-size="18" transform="rotate(-3 210.47 126.92)">left</text>
    <text class="key-index" x="286.14" y="134.32" font-size="26">11</text>
    <text class="key-part part-0" x="286.14" y="161.60" font-size="18">left</text>
    <text class="key-index" x="356.28" y="169.46" font-size="26">12</text>
    <text class="key-part part-0" x="356.28" y="196.74" font-size="18">left</text>
    <text class="key-index" x="580.98" y="169.46" font-size="26">13</text>
    <text class="key-part part-1" x="580.98" y="196.74" font-size="18">right</text>
    <text class="key-index" x="651.19" y="134.32" font-size="26">14</text>
    <text class="key-part part-1" x="651.19" y="161.60" font-size="18">right</text>
    <text class="key-index" x="726.79" y="115.28" font-size="26" transform="rotate(3 726.79 126.92)">15</text>
    <text class="key-part part-1" x="726.79" y="142.56" font-size="18" transform="rotate(3 726.79 126.92)">right</text>
    <text class="key-index" x="800.01" y="142.16" font-size="26" transform="rotate(6 800.01 153.80)">16</text>
    <text class="key-part part-1" x="800.01" y="169.44" font-size="18" transform="rotate(6 800.01 153.80)">right</text>
    <text class="key-index" x="875.75" y="175.41" font-size="26" transform="rotate(12 875.75 187.05)">17</text>
    <text class="key-part part-1" x="875.75" y="202.69" font-size="18" transform="rotate(12 875.75 187.05)">right</text>
    <text class="key-index" x="76.07" y="244.08" font-size="26" transform="rotate(-12 76.07 255.72)">18</text>
    <text class="key-part part-0" x="76.07" y="271.36" font-size="18" transform="rotate(-12 76.07 255.72)">left</text>
    <text class="key-index" x="144.60" y="211.95" font-size="26" transform="rotate(-6 144.60 223.59)">19</text>
    <text class="key-part part-0" x="144.60" y="239.23" font-size="18" transform="rotate(-6 144.60 223.59)">left</text>
    <text class="key-index" x="214.18" y="185.35" font-size="26" transform="rotate(-3 214.18 196.99)">20</text>
    <text class="key-part part-0" x="214.18" y="212.63" font-size="18" transform="rotate(-3 214.18 196.99)">left</text>
    <text class="key-index" x="286.14" y="204.53" font-size="26">21</text>
    <text class="key-part part-0" x="286.14" y="231.81" font-size="18">left</text>
    <text class="key-index" x="651.19" y="204.53" font-size="26">22</text>
    <text class="key-part part-1" x="651.19" y="231.81" font-size="18">right</text>
    <text class="key-index" x="723.15" y="185.35" font-size="26" transform="rotate(3 723.15 196.99)">23</text>
    <text class="key-part part-1" x="723.15" y="212.63" font-size="18" transform="rotate(3 723.15 196.99)">right</text>
    <text class="key-index" x="792.73" y="211.95" font-size="26" transform="rotate(6 792.73 223.59)">24</text>
    <text class="key-part part-1" x="792.73" y="239.23" font-size="18" transform="rotate(6 792.73 223.59)">right</text>
    <text class="key-index" x="861.19" y="244.08" font-size="26" transform="rotate(12 861.19 255.72)">25</text>
    <text class="key-part part-1" x="861.19" y="271.36" font-size="18" transform="rotate(12 861.19 255.72)">right</text>
    <text class="key-index" x="319.81" y="288.60" font-size="26" transform="rotate(20 319.81 300.24)">26</text>
    <text class="key-part part-0" x="319.81" y="315.88" font-size="18" transform="rotate(20 319.81 300.24)">left</text>
    <text class="key-index" x="385.75" y="312.61" font-size="26" transform="rotate(20 385.75 324.25)">27</text>
    <text class="key-part part-0" x="385.75" y="339.89" font-size="18" transform="rotate(20 385.75 324.25)">left</text>
    <text class="key-index" x="551.51" y="312.61" font-size="26" transform="rotate(-20 551.51 324.25)">28</text>
    <text class="key-part part-1" x="551.51" y="339.89" font-size="18" transform="rotate(-20 551.51 324.25)">right</text>
    <text class="key-index" x="617.45" y="288.60" font-size="26" transform="rotate(-20 617.45 300.24)">29</text>
    <text class="key-part part-1" x="617.45" y="315.88" font-size="18" transform="rotate(-20 617.45 300.24)">right</text>
  </g>
</svg>
